<svg width="77" height="84" viewBox="0 0 77 84" fill="none" xmlns="http://www.w3.org/2000/svg">
<rect x="1.48462" y="4.44141" width="74" height="79" rx="14" fill="#94DCD6" stroke="black" stroke-width="2"/>
<path d="M30.6604 73.0684V74.04H27.0911V73.0684H30.6604ZM27.4329 66.9307V74.04H26.2073V66.9307H27.4329ZM33.8196 74.1377C33.429 74.1377 33.0758 74.0742 32.76 73.9473C32.4475 73.8171 32.1806 73.6364 31.9592 73.4053C31.7411 73.1742 31.5735 72.9023 31.4563 72.5898C31.3391 72.2773 31.2805 71.9404 31.2805 71.5791V71.3838C31.2805 70.9704 31.3407 70.596 31.4612 70.2607C31.5816 69.9255 31.7493 69.639 31.9641 69.4014C32.179 69.1605 32.4329 68.9766 32.7258 68.8496C33.0188 68.7227 33.3362 68.6592 33.678 68.6592C34.0556 68.6592 34.386 68.7227 34.6692 68.8496C34.9524 68.9766 35.1868 69.1556 35.3723 69.3867C35.5611 69.6146 35.7011 69.8864 35.7922 70.2021C35.8866 70.5179 35.9338 70.8662 35.9338 71.2471V71.75H31.8518V70.9053H34.7717V70.8125C34.7652 70.6009 34.7229 70.4023 34.6448 70.2168C34.5699 70.0312 34.4543 69.8815 34.2981 69.7676C34.1418 69.6536 33.9335 69.5967 33.6731 69.5967C33.4778 69.5967 33.3036 69.639 33.1506 69.7236C33.0009 69.805 32.8756 69.9238 32.7747 70.0801C32.6737 70.2363 32.5956 70.4251 32.5403 70.6465C32.4882 70.8646 32.4622 71.1104 32.4622 71.3838V71.5791C32.4622 71.8102 32.4931 72.0251 32.5549 72.2236C32.62 72.4189 32.7144 72.5898 32.8381 72.7363C32.9618 72.8828 33.1116 72.9984 33.2874 73.083C33.4631 73.1644 33.6633 73.2051 33.8879 73.2051C34.1711 73.2051 34.4234 73.1481 34.6448 73.0342C34.8661 72.9202 35.0582 72.7591 35.2209 72.5508L35.8411 73.1514C35.7271 73.3174 35.579 73.4769 35.3967 73.6299C35.2144 73.7796 34.9915 73.9017 34.7278 73.9961C34.4674 74.0905 34.1646 74.1377 33.8196 74.1377ZM39.8303 72.9805V70.4609C39.8303 70.2721 39.7961 70.1094 39.7278 69.9727C39.6594 69.8359 39.5553 69.7301 39.4153 69.6553C39.2786 69.5804 39.106 69.543 38.8977 69.543C38.7056 69.543 38.5396 69.5755 38.3997 69.6406C38.2597 69.7057 38.1506 69.7936 38.0725 69.9043C37.9944 70.015 37.9553 70.1403 37.9553 70.2803H36.7834C36.7834 70.0719 36.8339 69.8701 36.9348 69.6748C37.0357 69.4795 37.1822 69.3053 37.3743 69.1523C37.5663 68.9993 37.7958 68.8789 38.0627 68.791C38.3297 68.7031 38.6292 68.6592 38.9612 68.6592C39.3583 68.6592 39.7099 68.7259 40.0159 68.8594C40.3251 68.9928 40.5676 69.1947 40.7434 69.4648C40.9224 69.7318 41.012 70.0671 41.012 70.4707V72.8193C41.012 73.0602 41.0282 73.2767 41.0608 73.4688C41.0966 73.6576 41.1471 73.8219 41.2122 73.9619V74.04H40.0061C39.9508 73.9131 39.9068 73.752 39.8743 73.5566C39.845 73.3581 39.8303 73.166 39.8303 72.9805ZM40.0012 70.8271L40.011 71.5547H39.1663C38.9482 71.5547 38.7561 71.5758 38.5901 71.6182C38.4241 71.6572 38.2857 71.7158 38.175 71.7939C38.0644 71.8721 37.9814 71.9665 37.926 72.0771C37.8707 72.1878 37.843 72.3132 37.843 72.4531C37.843 72.5931 37.8756 72.7217 37.9407 72.8389C38.0058 72.9528 38.1002 73.0423 38.2239 73.1074C38.3508 73.1725 38.5038 73.2051 38.6829 73.2051C38.9237 73.2051 39.1337 73.1562 39.3127 73.0586C39.495 72.9577 39.6383 72.8356 39.7424 72.6924C39.8466 72.5459 39.9019 72.4076 39.9084 72.2773L40.2893 72.7998C40.2502 72.9333 40.1835 73.0765 40.0891 73.2295C39.9947 73.3825 39.871 73.529 39.718 73.6689C39.5683 73.8057 39.3876 73.918 39.176 74.0059C38.9677 74.0938 38.7268 74.1377 38.4534 74.1377C38.1083 74.1377 37.8007 74.0693 37.5305 73.9326C37.2603 73.7926 37.0487 73.6055 36.8958 73.3711C36.7428 73.1335 36.6663 72.8649 36.6663 72.5654C36.6663 72.2855 36.7183 72.0381 36.8225 71.8232C36.9299 71.6051 37.0862 71.4229 37.2913 71.2764C37.4996 71.1299 37.7535 71.0192 38.053 70.9443C38.3525 70.8662 38.6943 70.8271 39.0784 70.8271H40.0012ZM43.4241 69.7627V74.04H42.2473V68.7568H43.3704L43.4241 69.7627ZM45.0403 68.7227L45.0305 69.8164C44.9589 69.8034 44.8808 69.7936 44.7961 69.7871C44.7148 69.7806 44.6334 69.7773 44.552 69.7773C44.3502 69.7773 44.1728 69.8066 44.0198 69.8652C43.8668 69.9206 43.7382 70.002 43.634 70.1094C43.5331 70.2135 43.455 70.3405 43.3997 70.4902C43.3443 70.64 43.3118 70.8076 43.302 70.9932L43.0334 71.0127C43.0334 70.6807 43.066 70.373 43.1311 70.0898C43.1962 69.8066 43.2939 69.5576 43.4241 69.3428C43.5575 69.1279 43.7236 68.9603 43.9221 68.8398C44.1239 68.7194 44.3567 68.6592 44.6204 68.6592C44.692 68.6592 44.7685 68.6657 44.8499 68.6787C44.9345 68.6917 44.998 68.7064 45.0403 68.7227ZM46.9446 69.8848V74.04H45.7678V68.7568H46.8762L46.9446 69.8848ZM46.7346 71.2031L46.3538 71.1982C46.357 70.8239 46.4091 70.4805 46.51 70.168C46.6142 69.8555 46.7574 69.5869 46.9397 69.3623C47.1252 69.1377 47.3466 68.9652 47.6038 68.8447C47.8609 68.721 48.1474 68.6592 48.4631 68.6592C48.717 68.6592 48.9465 68.695 49.1516 68.7666C49.3599 68.835 49.5374 68.9473 49.6838 69.1035C49.8336 69.2598 49.9475 69.4632 50.0256 69.7139C50.1038 69.9613 50.1428 70.2656 50.1428 70.627V74.04H48.9612V70.6221C48.9612 70.3682 48.9237 70.168 48.8489 70.0215C48.7773 69.8717 48.6715 69.766 48.5315 69.7041C48.3948 69.639 48.2239 69.6064 48.0188 69.6064C47.817 69.6064 47.6363 69.6488 47.4768 69.7334C47.3173 69.818 47.1822 69.9336 47.0715 70.0801C46.9641 70.2266 46.8811 70.3958 46.8225 70.5879C46.7639 70.7799 46.7346 70.985 46.7346 71.2031Z" fill="black"/>
<path d="M59.8596 19.7695C57.2234 18.9383 54.3259 18.582 51.5471 18.582C46.9159 18.582 41.9284 19.532 38.4846 22.1445C35.0409 19.532 30.0534 18.582 25.4221 18.582C20.7909 18.582 15.8034 19.532 12.3596 22.1445V56.9383C12.3596 57.532 12.9534 58.1258 13.5471 58.1258C13.7846 58.1258 13.9034 58.007 14.1409 58.007C17.3471 56.4633 21.9784 55.3945 25.4221 55.3945C30.0534 55.3945 35.0409 56.3445 38.4846 58.957C41.6909 56.9383 47.5096 55.3945 51.5471 55.3945C55.4659 55.3945 59.5034 56.107 62.8284 57.8883C63.0659 58.007 63.1846 58.007 63.4221 58.007C64.0159 58.007 64.6096 57.4133 64.6096 56.8195V22.1445C63.1846 21.0758 61.6409 20.3633 59.8596 19.7695ZM59.8596 51.832C57.2471 51.0008 54.3971 50.6445 51.5471 50.6445C47.5096 50.6445 41.6909 52.1883 38.4846 54.207V26.8945C41.6909 24.8758 47.5096 23.332 51.5471 23.332C54.3971 23.332 57.2471 23.6883 59.8596 24.5195V51.832Z" fill="black"/>
<path d="M50.934 41.854H47.8905C47.8905 41.1877 47.9392 40.6074 48.0365 40.1133C48.1413 39.6117 48.3135 39.1624 48.5531 38.7656C48.7927 38.3613 49.1146 37.9757 49.5189 37.6089C49.8708 37.3019 50.1778 37.0137 50.4398 36.7441C50.7019 36.4671 50.904 36.1826 51.0463 35.8906C51.1885 35.5986 51.2596 35.2804 51.2596 34.936C51.2596 34.5243 51.196 34.1873 51.0687 33.9253C50.9489 33.6558 50.7692 33.4536 50.5297 33.3188C50.2976 33.1766 50.0056 33.1055 49.6537 33.1055C49.3617 33.1055 49.0884 33.1729 48.8339 33.3076C48.5793 33.4349 48.3734 33.637 48.2162 33.9141C48.059 34.1911 47.9729 34.5542 47.9579 35.0034H44.4315C44.454 33.9328 44.6973 33.0568 45.1615 32.3755C45.6257 31.6867 46.2471 31.1813 47.0258 30.8594C47.8119 30.5299 48.6879 30.3652 49.6537 30.3652C50.7243 30.3652 51.6415 30.5337 52.4052 30.8706C53.1763 31.2075 53.764 31.7054 54.1683 32.3643C54.5801 33.0231 54.786 33.828 54.786 34.7788C54.786 35.4302 54.6625 36.0029 54.4154 36.4971C54.1683 36.9837 53.8389 37.4404 53.4271 37.8672C53.0153 38.2865 52.5586 38.7244 52.057 39.1812C51.6302 39.563 51.3383 39.9598 51.181 40.3716C51.0238 40.7759 50.9414 41.27 50.934 41.854ZM47.4862 45.2905C47.4862 44.7889 47.6659 44.3659 48.0253 44.0215C48.3921 43.6771 48.8676 43.5049 49.4515 43.5049C50.0355 43.5049 50.5072 43.6771 50.8666 44.0215C51.226 44.3659 51.4056 44.7889 51.4056 45.2905C51.4056 45.7996 51.226 46.2264 50.8666 46.5708C50.5072 46.9077 50.0355 47.0762 49.4515 47.0762C48.8676 47.0762 48.3921 46.9077 48.0253 46.5708C47.6659 46.2264 47.4862 45.7996 47.4862 45.2905Z" fill="black"/>
</svg>
