<svg width="53" height="41" viewBox="0 0 53 41" fill="none" xmlns="http://www.w3.org/2000/svg">
<g clip-path="url(#clip0_437_303)">
<path d="M48.1225 1.64648C45.4862 0.815234 42.5887 0.458984 39.81 0.458984C35.1787 0.458984 30.1912 1.40898 26.7475 4.02148C23.3037 1.40898 18.3162 0.458984 13.685 0.458984C9.05375 0.458984 4.06625 1.40898 0.622498 4.02148V38.8152C0.622498 39.409 1.21625 40.0027 1.81 40.0027C2.0475 40.0027 2.16625 39.884 2.40375 39.884C5.61 38.3402 10.2412 37.2715 13.685 37.2715C18.3162 37.2715 23.3037 38.2215 26.7475 40.834C29.9537 38.8152 35.7725 37.2715 39.81 37.2715C43.7287 37.2715 47.7662 37.984 51.0912 39.7652C51.3287 39.884 51.4475 39.884 51.685 39.884C52.2787 39.884 52.8725 39.2902 52.8725 38.6965V4.02148C51.4475 2.95273 49.9037 2.24023 48.1225 1.64648ZM48.1225 33.709C45.51 32.8777 42.66 32.5215 39.81 32.5215C35.7725 32.5215 29.9537 34.0652 26.7475 36.084V8.77148C29.9537 6.75273 35.7725 5.20898 39.81 5.20898C42.66 5.20898 45.51 5.56523 48.1225 6.39648V33.709Z" fill="black"/>
<path d="M39.1969 23.731H36.1534C36.1534 23.0646 36.2021 22.4844 36.2994 21.9902C36.4042 21.4886 36.5764 21.0394 36.816 20.6426C37.0556 20.2383 37.3775 19.8527 37.7818 19.4858C38.1337 19.1789 38.4407 18.8906 38.7027 18.6211C38.9648 18.3441 39.1669 18.0596 39.3092 17.7676C39.4514 17.4756 39.5226 17.1574 39.5226 16.813C39.5226 16.4012 39.4589 16.0643 39.3316 15.8022C39.2119 15.5327 39.0322 15.3306 38.7926 15.1958C38.5605 15.0535 38.2685 14.9824 37.9166 14.9824C37.6246 14.9824 37.3513 15.0498 37.0968 15.1846C36.8422 15.3118 36.6363 15.514 36.4791 15.791C36.3219 16.068 36.2358 16.4312 36.2208 16.8804H32.6944C32.7169 15.8097 32.9602 14.9338 33.4244 14.2524C33.8886 13.5636 34.51 13.0583 35.2887 12.7363C36.0748 12.4069 36.9508 12.2422 37.9166 12.2422C38.9872 12.2422 39.9044 12.4106 40.6681 12.7476C41.4392 13.0845 42.027 13.5824 42.4313 14.2412C42.843 14.9001 43.0489 15.7049 43.0489 16.6558C43.0489 17.3071 42.9254 17.8799 42.6783 18.374C42.4313 18.8607 42.1018 19.3174 41.69 19.7441C41.2783 20.1634 40.8216 20.6014 40.3199 21.0581C39.8932 21.4399 39.6012 21.8368 39.4439 22.2485C39.2867 22.6528 39.2044 23.147 39.1969 23.731ZM35.7491 27.1675C35.7491 26.6659 35.9288 26.2428 36.2882 25.8984C36.655 25.554 37.1305 25.3818 37.7145 25.3818C38.2984 25.3818 38.7701 25.554 39.1295 25.8984C39.4889 26.2428 39.6686 26.6659 39.6686 27.1675C39.6686 27.6766 39.4889 28.1034 39.1295 28.4478C38.7701 28.7847 38.2984 28.9531 37.7145 28.9531C37.1305 28.9531 36.655 28.7847 36.2882 28.4478C35.9288 28.1034 35.7491 27.6766 35.7491 27.1675Z" fill="black"/>
</g>
<defs>
<clipPath id="clip0_437_303">
<rect width="53" height="41" fill="white"/>
</clipPath>
</defs>
</svg>
