<svg width="132" height="146" viewBox="0 0 132 146" fill="none" xmlns="http://www.w3.org/2000/svg">
<path d="M66 1.5C101.767 1.5 130.5 33.6642 130.5 73C130.5 112.336 101.767 144.5 66 144.5C30.2329 144.5 1.5 112.336 1.5 73C1.5 33.6642 30.2329 1.5 66 1.5Z" fill="#B3EFFF" stroke="black" stroke-width="3"/>
<g clip-path="url(#clip0_180_9)">
<path d="M68.7919 105.775C60.8775 105.775 53.7642 100.407 50.8266 92.2331L43.4705 71.7052C42.7179 69.5742 44.5144 67.4431 46.4809 68.1445L48.3988 68.8458C49.7584 69.3314 50.8751 70.4913 51.4092 71.9749L54.8324 81.4971H56.6532V49.8015C56.6532 47.9403 58.0127 46.4297 59.6879 46.4297C61.363 46.4297 62.7225 47.9403 62.7225 49.8015V73.4046H65.1503V44.4065C65.1503 42.5453 66.5098 41.0347 68.185 41.0347C69.8601 41.0347 71.2197 42.5453 71.2197 44.4065V73.4046H73.6474V48.4528C73.6474 46.5915 75.0069 45.0809 76.6821 45.0809C78.3572 45.0809 79.7168 46.5915 79.7168 48.4528V73.4046H82.1445V56.5453C82.1445 54.684 83.504 53.1734 85.1792 53.1734C86.8543 53.1734 88.2139 54.684 88.2139 56.5453V84.1946C88.2139 96.1175 79.5225 105.775 68.7919 105.775Z" fill="black"/>
</g>
<defs>
<clipPath id="clip0_180_9">
<rect width="58.2659" height="64.7399" fill="white" transform="translate(37.2312 41.0347)"/>
</clipPath>
</defs>
</svg>
