<svg width="132" height="146" viewBox="0 0 132 146" fill="none" xmlns="http://www.w3.org/2000/svg">
<path d="M66 1.5C101.767 1.5 130.5 33.6642 130.5 73C130.5 112.336 101.767 144.5 66 144.5C30.2329 144.5 1.5 112.336 1.5 73C1.5 33.6642 30.2329 1.5 66 1.5Z" fill="#B3EFFF" stroke="black" stroke-width="3"/>
<g clip-path="url(#clip0_180_16)">
<path d="M66.3642 79.8786C71.2002 79.8786 75.0749 75.5411 75.0749 70.1676L75.1041 50.7457C75.1041 45.3723 71.2002 41.0347 66.3642 41.0347C61.5281 41.0347 57.6243 45.3723 57.6243 50.7457V70.1676C57.6243 75.5411 61.5281 79.8786 66.3642 79.8786ZM81.8046 70.1676C81.8046 79.8786 74.4049 86.6763 66.3642 86.6763C58.3235 86.6763 50.9237 79.8786 50.9237 70.1676H45.9711C45.9711 81.2058 53.8953 90.3341 63.4509 91.9202V102.538H69.2775V91.9202C78.8331 90.3665 86.7572 81.2382 86.7572 70.1676H81.8046Z" fill="black"/>
</g>
<defs>
<clipPath id="clip0_180_16">
<rect width="69.9191" height="77.6879" fill="white" transform="translate(31.4046 34.5607)"/>
</clipPath>
</defs>
</svg>
